<?xml version="1.0" encoding="UTF-8" standalone="no"?>
<svg
   xmlns:dc="http://purl.org/dc/elements/1.1/"
   xmlns:cc="http://creativecommons.org/ns#"
   xmlns:rdf="http://www.w3.org/1999/02/22-rdf-syntax-ns#"
   xmlns:svg="http://www.w3.org/2000/svg"
   xmlns="http://www.w3.org/2000/svg"
   xmlns:sodipodi="http://sodipodi.sourceforge.net/DTD/sodipodi-0.dtd"
   xmlns:inkscape="http://www.inkscape.org/namespaces/inkscape"
   width="16"
   height="16"
   viewBox="0 0 16 16"
   version="1.1"
   id="svg8"
   inkscape:version="1.0.2 (e86c870879, 2021-01-15)"
   sodipodi:docname="robbo.svg">
  <defs
     id="defs2" />
  <sodipodi:namedview
     id="base"
     pagecolor="#727272"
     bordercolor="#666666"
     borderopacity="1.0"
     inkscape:pageopacity="0"
     inkscape:pageshadow="2"
     inkscape:zoom="44.8"
     inkscape:cx="12.597668"
     inkscape:cy="8.354651"
     inkscape:document-units="px"
     inkscape:current-layer="layer1"
     inkscape:document-rotation="0"
     showgrid="true"
     units="px"
     inkscape:window-width="1858"
     inkscape:window-height="1047"
     inkscape:window-x="0"
     inkscape:window-y="0"
     inkscape:window-maximized="1">
    <inkscape:grid
       type="xygrid"
       id="grid10"
       units="px"
       spacingx="0.26458333"
       spacingy="0.26458333" />
  </sodipodi:namedview>
  <metadata
     id="metadata5">
    <rdf:RDF>
      <cc:Work
         rdf:about="">
        <dc:format>image/svg+xml</dc:format>
        <dc:type
           rdf:resource="http://purl.org/dc/dcmitype/StillImage" />
        <dc:title></dc:title>
      </cc:Work>
    </rdf:RDF>
  </metadata>
  <g
     inkscape:label="Warstwa 1"
     inkscape:groupmode="layer"
     id="layer1">
    <path
       id="rect1169"
       style="fill:#ffffff;fill-opacity:1;stroke-width:1.00157;stroke-linecap:round;paint-order:markers stroke fill;stop-color:#000000"
       d="M 3,3 C 3,4 3,5 3,6 3.6666667,6 4.3333333,6 5,6 5,6.3333333 5,6.6666667 5,7 4.3333333,7 3.6666667,7 3,7 3,7.3333333 3,7.6666667 3,8 2.3333333,8 1.6666667,8 1,8 c 0,1 0,2 0,3 0.6666667,0 1.3333333,0 2,0 0,0.666667 0,1.333333 0,2 3.3333333,0 6.6666667,0 10,0 0,-2 0,-4 0,-6 -0.666667,0 -1.333333,0 -2,0 0,-0.3333333 0,-0.6666667 0,-1 0.666667,0 1.333333,0 2,0 C 13,5 13,4 13,3 9.6666667,3 6.3333333,3 3,3 Z" />
    <rect
       style="fill:#80a0ff;stroke-width:1.00157;stroke-linecap:round;paint-order:markers stroke fill;stop-color:#000000;fill-opacity:1"
       id="rect102"
       width="2"
       height="1"
       x="3"
       y="0" />
    <rect
       style="fill:#80a0ff;fill-opacity:1;stroke-width:1.00157;stroke-linecap:round;paint-order:markers stroke fill;stop-color:#000000"
       id="rect104"
       width="2"
       height="1"
       x="5"
       y="1" />
    <rect
       style="fill:#80a0ff;fill-opacity:1;stroke-width:1.00157;stroke-linecap:round;paint-order:markers stroke fill;stop-color:#000000"
       id="rect106"
       width="2"
       height="1"
       x="7"
       y="2" />
    <path
       id="rect108"
       style="fill:#80a0ff;fill-opacity:1;stroke-width:1.00157;stroke-linecap:round;paint-order:markers stroke fill;stop-color:#000000"
       d="M 3,3 C 3,4 3,5 3,6 3.6666667,6 4.3333333,6 5,6 5,5.3333333 5,4.6666667 5,4 5.6666667,4 6.3333333,4 7,4 7,3.6666667 7,3.3333333 7,3 5.6666667,3 4.3333333,3 3,3 Z" />
    <path
       id="rect104-3"
       style="fill:#80a0ff;fill-opacity:1;stroke-width:1.00157;stroke-linecap:round;paint-order:markers stroke fill;stop-color:#000000"
       d="M 5,6 C 5,6.3333333 5,6.6666667 5,7 4.3333333,7 3.6666667,7 3,7 c 0,2 0,4 0,6 0.6666667,0 1.3333333,0 2,0 C 5,11.333333 5,9.6666667 5,8 5.6666667,8 6.3333333,8 7,8 7,7.6666667 7,7.3333333 7,7 7.6666667,7 8.3333333,7 9,7 9,6.6666667 9,6.3333333 9,6 7.6666667,6 6.3333333,6 5,6 Z" />
    <path
       id="rect104-5"
       style="fill:#80a0ff;fill-opacity:1;stroke-width:1.00157;stroke-linecap:round;paint-order:markers stroke fill;stop-color:#000000"
       d="m 3,14 c 0,0.666667 0,1.333333 0,2 0.6666667,0 1.3333333,0 2,0 0,-0.666667 0,-1.333333 0,-2 -0.6666667,0 -1.3333333,0 -2,0 z" />
    <path
       id="rect104-5-2"
       style="fill:#80a0ff;fill-opacity:1;stroke-width:1.00157;stroke-linecap:round;paint-order:markers stroke fill;stop-color:#000000"
       d="m 9.0000002,14 c 0,0.666667 0,1.333333 0,2 0.6666667,0 1.3333328,0 1.9999998,0 0,-0.666667 0,-1.333333 0,-2 -0.666667,0 -1.3333331,0 -1.9999998,0 z" />
    <path
       id="rect104-5-7"
       style="fill:#80a0ff;fill-opacity:1;stroke-width:1.00157;stroke-linecap:round;paint-order:markers stroke fill;stop-color:#000000"
       d="m 13,8 c 0,1.3333333 0,2.666667 0,4 0.666667,0 1.333333,0 2,0 0,-1.333333 0,-2.6666667 0,-4 -0.666667,0 -1.333333,0 -2,0 z" />
    <rect
       style="fill:#ffffff;fill-opacity:1;stroke-width:1.00157;stroke-linecap:round;paint-order:markers stroke fill;stop-color:#000000"
       id="rect106-9"
       width="2"
       height="1"
       x="9"
       y="1" />
    <rect
       style="fill:#ffffff;fill-opacity:1;stroke-width:1.00157;stroke-linecap:round;paint-order:markers stroke fill;stop-color:#000000"
       id="rect106-9-6"
       width="2"
       height="1"
       x="11"
       y="1.5217076e-08" />
    <rect
       style="fill:#000000;fill-opacity:1;stroke-width:1.00157;stroke-linecap:round;paint-order:markers stroke fill;stop-color:#000000"
       id="rect106-9-0"
       width="2"
       height="1"
       x="9"
       y="4" />
    <rect
       style="fill:#000000;fill-opacity:1;stroke-width:1.00157;stroke-linecap:round;paint-order:markers stroke fill;stop-color:#000000"
       id="rect106-9-0-6"
       width="2"
       height="1"
       x="5"
       y="4" />
    <path
       id="rect104-5-26"
       style="fill:#ffffff;fill-opacity:1;stroke-width:1.00157;stroke-linecap:round;paint-order:markers stroke fill;stop-color:#000000"
       d="m 5.0000001,14 c 0,0.666667 0,1.333333 0,2 0.6666667,0 1.3333333,0 2,0 0,-0.666667 0,-1.333333 0,-2 -0.6666667,0 -1.3333333,0 -2,0 z" />
    <path
       id="rect104-5-26-1"
       style="fill:#ffffff;fill-opacity:1;stroke-width:1.00157;stroke-linecap:round;paint-order:markers stroke fill;stop-color:#000000"
       d="m 11,14 c 0,0.666667 0,1.333333 0,2 0.666667,0 1.333333,0 2,0 0,-0.666667 0,-1.333333 0,-2 -0.666667,0 -1.333333,0 -2,0 z" />
  </g>
</svg>
